<?xml version="1.0" encoding="utf-8"?>
<!-- Generator: Adobe Illustrator 25.4.1, SVG Export Plug-In . SVG Version: 6.00 Build 0)  -->
<svg version="1.1" id="Layer_1" xmlns="http://www.w3.org/2000/svg" xmlns:xlink="http://www.w3.org/1999/xlink" x="0px" y="0px"
	 viewBox="0 0 300 142" style="enable-background:new 0 0 300 142;" xml:space="preserve">
<style type="text/css">
	.st0{fill:#E39125;}
</style>
<g>
	<g>
		<path class="st0" d="M146.23,116.69L135.62,98.5h-7.03v18.19h-5.81V72.17h14.37c3.36,0,6.21,0.58,8.53,1.73
			c2.32,1.15,4.05,2.7,5.2,4.66c1.15,1.95,1.73,4.19,1.73,6.7c0,3.07-0.88,5.78-2.66,8.11c-1.76,2.34-4.42,3.89-7.95,4.66
			l11.17,18.64L146.23,116.69L146.23,116.69z M128.6,93.82h8.56c3.15,0,5.52-0.77,7.09-2.34c1.57-1.55,2.37-3.63,2.37-6.22
			c0-2.64-0.78-4.69-2.34-6.13c-1.55-1.44-3.92-2.18-7.12-2.18h-8.56V93.82L128.6,93.82z"/>
		<path class="st0" d="M167.44,72.17v44.52h-5.81V72.17H167.44z"/>
		<path class="st0" d="M222.48,72.49v44.2h-5.81V83.74l-14.69,32.95h-4.08l-14.75-33.01v33.01h-5.81v-44.2h6.26l16.35,36.53
			l16.35-36.53H222.48z"/>
	</g>
</g>
<g>
	<g>
		<path class="st0" d="M112.78,41.79c0,1.94-0.02,3.78,0.03,5.62c0,0.19,0.45,0.5,0.7,0.51c3.28,0.27,7.04-0.7,9.46-2.94
			c3.6-3.34,4.67-8.39,2.78-12.85c-1.84-4.35-6.19-7.07-11.03-6.91c-5.34,0.18-10.08,4.51-10.71,9.81c-0.1,0.77-0.14,1.55-0.14,2.32
			c0,33.14-0.02,44.84-0.02,77.98c0,1.62-0.21,1.46,1.5,1.46c1.47,0,2.93,0,4.53,0c0-0.51,0-0.94,0-1.36
			c0-33.36,0.02-45.3,0.02-78.67c0-3.31,2.61-5.78,5.86-5.52c3.06,0.24,5.31,3.12,4.86,6.21c-0.45,3.02-4.34,5.04-7.33,4.38
			C113.17,41.82,113.05,41.82,112.78,41.79z"/>
		<path class="st0" d="M94.15,62.11c0.05,0.4,0.1,0.67,0.13,0.96c0.35,2.8-1.54,6.3-4.29,6.9c-2.64,0.56-5.42-1.06-6.22-3.62
			c-0.85-2.69,0.45-5.6,3.09-6.62c0.83-0.32,1.81-0.38,2.7-0.4c3.44-0.05,6.86-0.03,10.31-0.05c0.32,0,0.62,0,1.1,0
			c0-0.99,0-1.92,0-2.86c0-0.83-0.02-1.68,0-2.51c0.02-0.42-0.1-0.66-0.58-0.64c-4.42,0.06-8.83-0.08-13.23,0.21
			c-4.7,0.32-8.88,4.7-9.52,9.52c-0.8,5.9,2.75,11.23,8.5,12.74c7.44,1.95,14.82-5.12,14.19-12.8c-0.02-0.29-0.3-0.77-0.46-0.77
			C97.98,62.08,96.11,62.11,94.15,62.11z"/>
		<path class="st0" d="M129.22,53.23c-5.14,0-10.27,0.02-15.41-0.02c-0.82,0-1.12,0.19-1.09,1.06c0.06,1.41,0.03,2.83,0.02,4.24
			c-0.02,0.56,0.18,0.75,0.75,0.75c10.48-0.02,20.95-0.02,31.43,0c0.64,0,0.78-0.24,0.77-0.82c-0.03-1.39-0.05-2.77,0.02-4.16
			c0.03-0.82-0.21-1.09-1.06-1.09C139.49,53.24,134.35,53.23,129.22,53.23z"/>
	</g>
</g>
<path class="st0" d="M103.83,116.79l0.04-79.43c0,0,2.4-3.66,3.46-0.75s2.56,9.76,2.56,9.76l-0.02,70.41L103.83,116.79z"/>
<polygon class="st0" points="94.04,62.08 99.72,62.12 98.57,66.27 "/>
</svg>
