<?xml version="1.0" encoding="utf-8"?>
<!-- Generator: Adobe Illustrator 19.2.1, SVG Export Plug-In . SVG Version: 6.00 Build 0)  -->
<svg version="1.1" id="layer" xmlns="http://www.w3.org/2000/svg" xmlns:xlink="http://www.w3.org/1999/xlink" x="0px" y="0px"
	 viewBox="0 0 652 652" style="enable-background:new 0 0 652 652;" xml:space="preserve">
<style type="text/css">
	.st0{fill:#231815;}
	.st1{fill:#FFF000;}
	.st2{fill:#FFFFFF;}
</style>
<g>
	<path class="st0" d="M274.3,245.7h36.6c6.1,0,10.5,1.7,13.3,5c2.7,3.4,3.7,7.5,2.9,12.5c-0.7,4.2-2.4,7.7-5.2,10.7
		c-1.9,2-4.4,3.6-7.6,4.7c4.4,1.2,7.4,3.3,9.1,6.3s2.2,6.7,1.4,11.2c-0.6,3.7-1.9,6.9-3.9,9.8c-2,2.9-4.4,5.2-7.4,6.9
		c-1.8,1.1-4.4,1.8-7.8,2.3c-4.5,0.6-7.5,1-8.9,1h-33.8L274.3,245.7 M285.3,300.9h10c3.4,0,5.8-0.7,7.4-2c1.6-1.3,2.6-3.1,2.9-5.3
		c0.3-2.1-0.1-3.7-1.3-5c-1.2-1.3-3.5-1.9-6.9-1.9h-9.9L285.3,300.9z M289.7,273.3h8.5c3.1,0,5.3-0.6,6.7-1.8
		c1.4-1.2,2.3-2.9,2.6-5.1c0.3-2.1,0-3.7-1-4.8c-1-1.2-3-1.7-6-1.7h-8.6L289.7,273.3z"/>
	<path class="st0" d="M332.2,316.1l11.2-70.4H376c6.1,0,10.6,0.6,13.6,1.7c3,1.2,5.3,3.3,6.7,6.4c1.5,3.1,1.8,6.9,1.1,11.4
		c-0.6,3.9-1.9,7.3-3.9,10.1c-1.9,2.8-4.4,5.1-7.3,6.9c-1.8,1.1-4.3,2.1-7.3,2.8c2.2,0.9,3.8,1.7,4.7,2.6c0.6,0.6,1.5,1.8,2.5,3.7
		s1.8,3.3,2.1,4.4l6.2,20.4h-22.1l-7.1-21.5c-0.9-2.8-1.8-4.6-2.7-5.4c-1.2-1.1-2.8-1.6-4.5-1.6h-1.7l-4.5,28.6H332.2 M358.5,274.2
		h8.3c0.9,0,2.7-0.3,5.3-1c1.3-0.3,2.5-1,3.5-2.2c1-1.2,1.6-2.6,1.9-4.1c0.4-2.3,0-4-1.1-5.2c-1.1-1.2-3.4-1.8-7-1.8h-8.6
		L358.5,274.2z"/>
	<polygon class="st0" points="411.9,245.7 464.3,245.7 461.9,260.7 429.1,260.7 427.4,272 457.8,272 455.5,286.3 425.1,286.3 
		422.9,300.1 456.7,300.1 454.1,316.1 400.7,316.1 	"/>
	<path class="st0" d="M505.4,304.5h-22.2l-4.9,11.6h-20l34.9-70.4h21.5l12.6,70.4h-20.5L505.4,304.5z M503.7,289.2l-2.9-25.3
		l-10.9,25.3H503.7z"/>
	<polygon class="st0" points="544.8,245.7 564.4,245.7 560.1,272.3 584.9,245.7 610.9,245.7 583.6,272.2 600.7,316.1 576.6,316.1 
		567.9,287.2 555.9,298.9 553.2,316.1 533.6,316.1 	"/>
	<polygon class="st0" points="595,274 620.6,274 618.2,289.2 592.6,289.2 	"/>
	<polygon class="st0" points="261.5,325.5 310.2,325.5 307.6,340.8 278.6,340.8 276.5,353.1 301.2,353.1 298.7,367.4 274.1,367.4 
		269.2,396.2 249.4,396.2 	"/>
	<path class="st0" d="M309.1,396.2l12.1-70.6h32.9c6.1,0,10.7,0.6,13.7,1.7c3,1.2,5.3,3.3,6.7,6.5c1.4,3.1,1.8,7,1,11.5
		c-0.7,3.9-2,7.3-4,10.2c-2,2.9-4.5,5.2-7.4,6.9c-1.9,1.1-4.3,2.1-7.4,2.8c2.2,0.9,3.8,1.7,4.7,2.6c0.6,0.6,1.5,1.8,2.5,3.7
		c1.1,1.9,1.7,3.4,2,4.4l6.2,20.4h-22.3l-7-21.5c-0.9-2.8-1.8-4.6-2.7-5.4c-1.3-1.1-2.8-1.6-4.6-1.6h-1.8l-4.9,28.6H309.1
		 M336,354.3h8.4c0.9,0,2.7-0.3,5.4-1c1.4-0.3,2.6-1,3.6-2.2c1-1.2,1.7-2.6,2-4.1c0.4-2.3,0-4.1-1.1-5.3c-1.1-1.2-3.5-1.8-7.1-1.8
		h-8.8L336,354.3z"/>
	<polygon class="st0" points="390.2,325.5 443,325.5 440.4,340.6 407.4,340.6 405.4,351.7 436.2,351.7 433.7,366.2 403,366.2 
		400.6,380.1 434.7,380.1 431.9,396.2 378.1,396.2 	"/>
	<polygon class="st0" points="454.6,325.5 507.4,325.5 504.8,340.6 471.8,340.6 469.9,351.7 500.6,351.7 498.1,366.2 467.4,366.2 
		465,380.1 499.1,380.1 496.3,396.2 442.5,396.2 	"/>
	<path class="st0" d="M528.8,330.4c0,1.3-0.3,2.4-0.9,3.5c-0.6,1.1-1.4,1.9-2.4,2.6c-1,0.6-2.1,0.9-3.3,0.9c-1.2,0-2.3-0.3-3.3-0.9
		c-1-0.6-1.8-1.5-2.4-2.6c-0.6-1.1-0.9-2.3-0.9-3.5c0-1.2,0.3-2.4,0.9-3.5c0.6-1.1,1.4-1.9,2.4-2.6c1-0.6,2.1-0.9,3.3-0.9
		c1.2,0,2.3,0.3,3.3,0.9c1,0.6,1.8,1.5,2.4,2.6C528.5,328,528.8,329.1,528.8,330.4 M527.5,330.4c0-1.6-0.5-2.9-1.5-4
		c-1-1.1-2.3-1.7-3.7-1.7c-1.5,0-2.7,0.6-3.7,1.7c-1,1.1-1.5,2.4-1.5,4c0,1.6,0.5,2.9,1.5,4c1,1.1,2.3,1.7,3.7,1.7
		c1.5,0,2.7-0.6,3.7-1.7C527,333.3,527.5,331.9,527.5,330.4 M519.2,326.6h3.1c0.9,0,1.5,0.2,1.9,0.6l0.6,1.5l-0.4,1.3l-1.4,0.8
		l0.6,0.3l0.6,0.8c0,0,0.4,0.7,1.1,2.2h-2.1c-0.7-1.4-1.1-2.3-1.4-2.6l-0.7-0.4l-0.2,0v3h-1.7V326.6z M520.9,329.8h0.8l1.1-0.3
		l0.3-0.7l-0.3-0.7l-1-0.3h-0.8V329.8z"/>
	<path class="st1" d="M144.9,390.2h83.9v0.5h-83.9V390.2z M229.8,384.5h-75.7v-0.5h75.7V384.5z M161.1,379.4h69.9v0.5h-69.9V379.4z
		 M231.6,374.6h-65.3v-0.5h65.3V374.6z M169.4,370.2h62.7v0.5h-62.7V370.2z M233.3,366.1h-60.7v-0.5h60.7V366.1z M176,360.2h58.1
		v0.5H176V360.2z M234.8,356h-57.3v-0.5h57.3V356z M180.5,349.9h54.6v0.5h-54.6V349.9z M236.6,344.2h-56v-0.5h56V344.2z
		 M182.9,338.3h54.5v0.5h-54.5V338.3z M239,333.7h-56.8v-0.5H239V333.7z M184.5,327.3h55.1v0.5h-55.1V327.3z"/>
	<path class="st1" d="M181.5,326.1c0,2.5-0.1,4.9-0.4,7.3c-0.2,1.7-0.4,3.4-0.7,5.1c-0.3,1.8-0.7,3.6-1.2,5.4
		c-0.6,2.3-1.3,4.5-2.1,6.6c-0.6,1.6-1.2,3.1-1.8,4.6c-0.8,1.8-1.7,3.6-2.6,5.3c-1,1.8-2,3.5-3.1,5.2c-1.1,1.7-2.3,3.3-3.5,4.8
		c-1,1.2-2,2.4-3,3.6c-1.6,1.8-3.4,3.6-5.2,5.2c-2,1.8-4,3.4-6.2,5c-3.1,2.3-6.4,4.3-9.9,6c-5,2.5-10.4,4.5-16,5.8
		c-5.2,1.2-10.5,1.8-16.1,1.8c-5.9,0-11.6-0.7-17.1-2.1c-5.1-1.2-9.9-3-14.5-5.3c-3.7-1.8-7.2-3.9-10.5-6.3c-2-1.4-3.9-2.9-5.7-4.6
		c-1.8-1.6-3.5-3.3-5.1-5.1c-1.2-1.3-2.4-2.7-3.5-4.2c-1.1-1.5-2.2-3-3.3-4.5c-1.2-1.8-2.3-3.6-3.3-5.4c-0.9-1.6-1.7-3.3-2.5-5.1
		c-0.8-1.7-1.5-3.5-2.1-5.3c-0.7-1.9-1.3-3.9-1.8-5.9c-0.5-2.1-1-4.1-1.3-6.2c-0.3-1.6-0.5-3.3-0.6-4.9c-0.2-2.3-0.3-4.6-0.3-6.9"/>
	<polyline class="st1" points="227.8,396.2 131.2,396.2 131.2,395.7 227.8,395.7 	"/>
</g>
<g>
	<path class="st2" d="M126.3,396.2H91.7v-0.5h34.6V396.2z M77.6,390.2h65.5v0.5H77.6V390.2z M151.7,384.5h-85v-0.5h85V384.5z
		 M61.9,379.4h95.4v0.5H61.9V379.4z M162.3,374.6H56.7v-0.5h105.6V374.6z M53.2,370.2h113.9v0.5H53.2V370.2z M168.9,366.1h-119v-0.5
		h119V366.1z M46.6,360.2h125.8v0.5H46.6V360.2z M174.8,356H44.1v-0.5h130.7V356z M42,349.9h135.6v0.5H42V349.9z M179.2,344.2h-139
		v-0.5h139V344.2z M39,338.3h141.4v0.5H39V338.3z M181.1,333.7H38.3v-0.5h142.7V333.7z M37.7,327.3h143.6v0.5H37.7V327.3z"/>
	<path class="st1" d="M115.2,254.7H31.3v-0.5h83.9V254.7z M30.3,260.4H106v0.5H30.3V260.4z M99,265.5H29.2v-0.5H99V265.5z
		 M28.5,270.4h65.3v0.5H28.5V270.4z M90.7,274.8H28v-0.5h62.7V274.8z M26.8,278.9h60.7v0.5H26.8V278.9z M84.1,284.7H26v-0.5h58.1
		V284.7z M25.3,288.9h57.3v0.5H25.3V288.9z M79.6,295.1H25v-0.5h54.6V295.1z M23.5,300.8h56v0.5h-56V300.8z M77.2,306.7H22.8v-0.5
		h54.5V306.7z M21.1,311.3h56.8v0.5H21.1V311.3z M75.6,317.7H20.6v-0.5h55.1V317.7z"/>
</g>
<g>
	<path class="st1" d="M78.6,318.9c0-2.5,0.1-4.9,0.4-7.3c0.2-1.7,0.4-3.4,0.7-5.1c0.3-1.8,0.7-3.6,1.2-5.4c0.6-2.3,1.3-4.5,2.1-6.6
		c0.6-1.6,1.2-3.1,1.8-4.6c0.8-1.8,1.7-3.6,2.6-5.3c1-1.8,2-3.5,3.1-5.2c1.1-1.7,2.3-3.3,3.5-4.8c1-1.2,2-2.4,3-3.6
		c1.6-1.8,3.4-3.6,5.2-5.2c2-1.8,4-3.4,6.2-5c3.1-2.3,6.4-4.3,9.9-6c5-2.5,10.4-4.5,16-5.8c5.2-1.2,10.5-1.8,16.1-1.8
		c5.9,0,11.6,0.7,17.1,2.1c5.1,1.2,9.9,3,14.5,5.3c3.7,1.8,7.2,3.9,10.5,6.3c2,1.4,3.9,2.9,5.7,4.6c1.8,1.6,3.5,3.3,5.1,5.1
		c1.2,1.3,2.4,2.7,3.5,4.2c1.1,1.5,2.2,3,3.3,4.5c1.2,1.8,2.3,3.6,3.3,5.4c0.9,1.6,1.7,3.3,2.5,5.1c0.8,1.7,1.5,3.5,2.1,5.3
		c0.7,1.9,1.3,3.9,1.8,5.9c0.5,2.1,1,4.1,1.3,6.2c0.3,1.6,0.5,3.3,0.6,4.9c0.2,2.3,0.3,4.6,0.3,6.9"/>
	<polyline class="st1" points="32.3,248.7 128.9,248.7 128.9,249.2 32.3,249.2 	"/>
	<path class="st2" d="M133.8,248.7h34.6v0.5h-34.6V248.7z M182.5,254.7H117v-0.5h65.5V254.7z M108.4,260.4h85v0.5h-85V260.4z
		 M198.2,265.5h-95.4v-0.5h95.4V265.5z M97.8,270.4h105.6v0.5H97.8V270.4z M206.9,274.8H93v-0.5h113.9V274.8z M91.2,278.9h119v0.5
		h-119V278.9z M213.5,284.7H87.7v-0.5h125.8V284.7z M85.3,288.9H216v0.5H85.3V288.9z M218.1,295.1H82.5v-0.5h135.6V295.1z
		 M80.9,300.8h139v0.5h-139V300.8z M221.1,306.7H79.7v-0.5h141.4V306.7z M79,311.3h142.7v0.5H79V311.3z M222.4,317.7H78.7v-0.5
		h143.6V317.7z"/>
</g>
</svg>
